<svg xmlns="http://www.w3.org/2000/svg" width="118.807" height="41.352" viewBox="0 0 118.807 41.352">
  <g id="Gruppe_1235" data-name="Gruppe 1235" transform="translate(-50 -32.648)">
    <g id="Gruppe_1034" data-name="Gruppe 1034" transform="translate(6631 14639.648)">
      <g id="Gruppe_987" data-name="Gruppe 987" transform="translate(-6529.913 -14599.372)">
        <path id="Pfad_845" data-name="Pfad 845" d="M323.878,55.546q0,5.2-2.63,8.179a9.247,9.247,0,0,1-7.312,2.978,9.364,9.364,0,0,1-7.387-2.926q-2.6-2.926-2.6-8.261,0-5.29,2.608-8.2a9.43,9.43,0,0,1,7.409-2.912,9.228,9.228,0,0,1,7.29,2.964Q323.878,50.331,323.878,55.546Zm-17.263,0q0,4.4,1.874,6.675a7.656,7.656,0,0,0,10.884.007q1.837-2.267,1.837-6.683,0-4.371-1.83-6.631a6.558,6.558,0,0,0-5.416-2.26,6.686,6.686,0,0,0-5.475,2.275Q306.616,51.2,306.616,55.546ZM345.63,66.408h-2.875L330.917,48.227H330.8q.237,3.2.237,5.868V66.408h-2.326V44.744h2.845l11.81,18.107h.119q-.03-.4-.133-2.571t-.074-3.1V44.744h2.356Zm18.033,0H351.587V44.744h12.076v2.237h-9.557v6.979h8.979v2.223h-8.979v7.972h9.557Zm3.27,0h-.378V63.494h-1.029v-.336h2.436v.336h-1.029Zm2.956,0-1.1-2.881h-.018q.031.342.031.813v2.067h-.349v-3.25h.569l1.029,2.681h.018l1.038-2.681h.565v3.25h-.378V64.314q0-.36.031-.782H371.3l-1.111,2.876Z" transform="translate(-303.949 -44.404)" fill="#fff"/>
      </g>
      <g id="Gruppe_1033" data-name="Gruppe 1033" transform="translate(-6581 -14607)">
        <path id="Differenzmenge_4" data-name="Differenzmenge 4" d="M32.147,37.351H5.323L37.351,5.323V32.147a5.2,5.2,0,0,1-5.2,5.2ZM5.258,35.878h0V28.35l4.96-4.96h7.527L5.258,35.878ZM0,32.07H0V5.2A5.2,5.2,0,0,1,5.2,0H32.07L0,32.07ZM27.175,13.961H19.647L32.093,1.515V9.043l-4.919,4.919Z" transform="translate(0 0)" fill="#fff"/>
      </g>
    </g>
    <text id="powered_by_KÄRCHER" data-name="powered by KÄRCHER" transform="translate(111 72)" fill="#fff" font-size="5" font-family="OpenSans, Open Sans"><tspan x="0" y="0">powered by KÄRCHER</tspan></text>
  </g>
</svg>
